<mxfile host="65bd71144e" pages="4">
    <diagram id="WckYCUMikU-ATggKfjpF" name="Lab-1">
        <mxGraphModel dx="707" dy="647" grid="1" gridSize="10" guides="1" tooltips="1" connect="1" arrows="1" fold="1" page="1" pageScale="1" pageWidth="827" pageHeight="1169" math="0" shadow="0">
            <root>
                <mxCell id="0"/>
                <mxCell id="1" parent="0"/>
                <mxCell id="Wv_VxIyxit9qa9FP4v7f-8" value="put pizza" style="edgeStyle=orthogonalEdgeStyle;rounded=0;orthogonalLoop=1;jettySize=auto;html=1;" parent="1" source="Wv_VxIyxit9qa9FP4v7f-6" target="Wv_VxIyxit9qa9FP4v7f-7" edge="1">
                    <mxGeometry relative="1" as="geometry"/>
                </mxCell>
                <mxCell id="p6vM0DzY1msPWMzT09f6-1" value="notify" style="edgeStyle=orthogonalEdgeStyle;rounded=0;orthogonalLoop=1;jettySize=auto;html=1;entryX=0.983;entryY=0.343;entryDx=0;entryDy=0;entryPerimeter=0;" parent="1" source="Wv_VxIyxit9qa9FP4v7f-6" target="Wv_VxIyxit9qa9FP4v7f-12" edge="1">
                    <mxGeometry relative="1" as="geometry">
                        <Array as="points">
                            <mxPoint x="390" y="290"/>
                            <mxPoint x="390" y="428"/>
                        </Array>
                    </mxGeometry>
                </mxCell>
                <mxCell id="Wv_VxIyxit9qa9FP4v7f-6" value="Pizza-Chef" style="aspect=fixed;html=1;points=[];align=center;image;fontSize=12;image=img/lib/azure2/integration/Logic_Apps.svg;" parent="1" vertex="1">
                    <mxGeometry x="290" y="250" width="67" height="52" as="geometry"/>
                </mxCell>
                <mxCell id="Wv_VxIyxit9qa9FP4v7f-7" value="Thermo-Box" style="sketch=0;aspect=fixed;html=1;points=[];align=center;image;fontSize=12;image=img/lib/mscae/BlobBlock.svg;" parent="1" vertex="1">
                    <mxGeometry x="504" y="255" width="50" height="42" as="geometry"/>
                </mxCell>
                <mxCell id="Wv_VxIyxit9qa9FP4v7f-11" value="order" style="edgeStyle=orthogonalEdgeStyle;rounded=0;orthogonalLoop=1;jettySize=auto;html=1;entryX=0.037;entryY=0.503;entryDx=0;entryDy=0;entryPerimeter=0;" parent="1" source="Wv_VxIyxit9qa9FP4v7f-9" target="Wv_VxIyxit9qa9FP4v7f-6" edge="1">
                    <mxGeometry relative="1" as="geometry"/>
                </mxCell>
                <mxCell id="Wv_VxIyxit9qa9FP4v7f-14" value="deliver pizza" style="edgeStyle=orthogonalEdgeStyle;rounded=0;orthogonalLoop=1;jettySize=auto;html=1;" parent="1" source="Wv_VxIyxit9qa9FP4v7f-12" target="Wv_VxIyxit9qa9FP4v7f-9" edge="1">
                    <mxGeometry relative="1" as="geometry">
                        <Array as="points">
                            <mxPoint x="190" y="436"/>
                            <mxPoint x="190" y="300"/>
                        </Array>
                    </mxGeometry>
                </mxCell>
                <mxCell id="p6vM0DzY1msPWMzT09f6-2" value="take pizza" style="edgeStyle=orthogonalEdgeStyle;rounded=0;orthogonalLoop=1;jettySize=auto;html=1;entryX=0.987;entryY=0.484;entryDx=0;entryDy=0;entryPerimeter=0;" parent="1" source="Wv_VxIyxit9qa9FP4v7f-12" target="Wv_VxIyxit9qa9FP4v7f-7" edge="1">
                    <mxGeometry relative="1" as="geometry">
                        <Array as="points">
                            <mxPoint x="620" y="436"/>
                            <mxPoint x="620" y="275"/>
                        </Array>
                    </mxGeometry>
                </mxCell>
                <mxCell id="Wv_VxIyxit9qa9FP4v7f-12" value="Delivery-Boy" style="aspect=fixed;html=1;points=[];align=center;image;fontSize=12;image=img/lib/azure2/integration/Logic_Apps.svg;" parent="1" vertex="1">
                    <mxGeometry x="290" y="410" width="67" height="52" as="geometry"/>
                </mxCell>
                <mxCell id="Wv_VxIyxit9qa9FP4v7f-9" value="&lt;span style=&quot;background-color: rgb(255 , 255 , 255)&quot;&gt;Customer&lt;/span&gt;" style="shape=umlActor;verticalLabelPosition=bottom;verticalAlign=top;html=1;outlineConnect=0;" parent="1" vertex="1">
                    <mxGeometry x="30" y="246" width="30" height="60" as="geometry"/>
                </mxCell>
            </root>
        </mxGraphModel>
    </diagram>
    <diagram id="NJwE1EiWPZUs-bMdxV_X" name="Lab-2">
        <mxGraphModel dx="707" dy="647" grid="1" gridSize="10" guides="1" tooltips="1" connect="1" arrows="1" fold="1" page="1" pageScale="1" pageWidth="827" pageHeight="1169" math="0" shadow="0">
            <root>
                <mxCell id="Q0W-F9wsaz1tx6airxOc-0"/>
                <mxCell id="Q0W-F9wsaz1tx6airxOc-1" parent="Q0W-F9wsaz1tx6airxOc-0"/>
                <mxCell id="wmbXAnl3NKLVuiJiG1Mm-9" value="put pizza" style="edgeStyle=orthogonalEdgeStyle;rounded=0;orthogonalLoop=1;jettySize=auto;html=1;" parent="Q0W-F9wsaz1tx6airxOc-1" source="wmbXAnl3NKLVuiJiG1Mm-11" target="wmbXAnl3NKLVuiJiG1Mm-12" edge="1">
                    <mxGeometry relative="1" as="geometry">
                        <Array as="points">
                            <mxPoint x="730" y="286"/>
                            <mxPoint x="730" y="182"/>
                        </Array>
                    </mxGeometry>
                </mxCell>
                <mxCell id="wmbXAnl3NKLVuiJiG1Mm-23" value="take order" style="edgeStyle=orthogonalEdgeStyle;rounded=0;orthogonalLoop=1;jettySize=auto;html=1;entryX=0.9;entryY=0.78;entryDx=0;entryDy=0;entryPerimeter=0;" parent="Q0W-F9wsaz1tx6airxOc-1" source="wmbXAnl3NKLVuiJiG1Mm-11" target="wmbXAnl3NKLVuiJiG1Mm-20" edge="1">
                    <mxGeometry relative="1" as="geometry">
                        <Array as="points">
                            <mxPoint x="509" y="286"/>
                            <mxPoint x="509" y="200"/>
                        </Array>
                    </mxGeometry>
                </mxCell>
                <mxCell id="wmbXAnl3NKLVuiJiG1Mm-25" value="notify" style="edgeStyle=orthogonalEdgeStyle;rounded=0;orthogonalLoop=1;jettySize=auto;html=1;" parent="Q0W-F9wsaz1tx6airxOc-1" source="wmbXAnl3NKLVuiJiG1Mm-11" target="wmbXAnl3NKLVuiJiG1Mm-16" edge="1">
                    <mxGeometry relative="1" as="geometry">
                        <Array as="points">
                            <mxPoint x="924" y="310"/>
                        </Array>
                    </mxGeometry>
                </mxCell>
                <mxCell id="wmbXAnl3NKLVuiJiG1Mm-11" value="Pizza-Chef-2" style="aspect=fixed;html=1;points=[];align=center;image;fontSize=12;image=img/lib/azure2/integration/Logic_Apps.svg;" parent="Q0W-F9wsaz1tx6airxOc-1" vertex="1">
                    <mxGeometry x="579" y="260" width="67" height="52" as="geometry"/>
                </mxCell>
                <mxCell id="wmbXAnl3NKLVuiJiG1Mm-12" value="Thermo-Box" style="sketch=0;aspect=fixed;html=1;points=[];align=center;image;fontSize=12;image=img/lib/mscae/BlobBlock.svg;" parent="Q0W-F9wsaz1tx6airxOc-1" vertex="1">
                    <mxGeometry x="760" y="161" width="50" height="42" as="geometry"/>
                </mxCell>
                <mxCell id="wmbXAnl3NKLVuiJiG1Mm-13" value="order" style="edgeStyle=orthogonalEdgeStyle;rounded=0;orthogonalLoop=1;jettySize=auto;html=1;entryX=-0.03;entryY=0.404;entryDx=0;entryDy=0;entryPerimeter=0;" parent="Q0W-F9wsaz1tx6airxOc-1" source="wmbXAnl3NKLVuiJiG1Mm-17" target="wmbXAnl3NKLVuiJiG1Mm-19" edge="1">
                    <mxGeometry relative="1" as="geometry">
                        <Array as="points">
                            <mxPoint x="200" y="286"/>
                            <mxPoint x="200" y="181"/>
                        </Array>
                    </mxGeometry>
                </mxCell>
                <mxCell id="wmbXAnl3NKLVuiJiG1Mm-14" value="deliver pizza" style="edgeStyle=orthogonalEdgeStyle;rounded=0;orthogonalLoop=1;jettySize=auto;html=1;" parent="Q0W-F9wsaz1tx6airxOc-1" source="wmbXAnl3NKLVuiJiG1Mm-16" target="wmbXAnl3NKLVuiJiG1Mm-17" edge="1">
                    <mxGeometry relative="1" as="geometry">
                        <Array as="points">
                            <mxPoint x="1040" y="177"/>
                            <mxPoint x="1040" y="446"/>
                            <mxPoint x="200" y="446"/>
                            <mxPoint x="200" y="310"/>
                        </Array>
                    </mxGeometry>
                </mxCell>
                <mxCell id="wmbXAnl3NKLVuiJiG1Mm-15" value="take pizza" style="edgeStyle=orthogonalEdgeStyle;rounded=0;orthogonalLoop=1;jettySize=auto;html=1;entryX=0.987;entryY=0.484;entryDx=0;entryDy=0;entryPerimeter=0;" parent="Q0W-F9wsaz1tx6airxOc-1" source="wmbXAnl3NKLVuiJiG1Mm-16" target="wmbXAnl3NKLVuiJiG1Mm-12" edge="1">
                    <mxGeometry relative="1" as="geometry">
                        <Array as="points">
                            <mxPoint x="890" y="181"/>
                            <mxPoint x="890" y="181"/>
                        </Array>
                    </mxGeometry>
                </mxCell>
                <mxCell id="wmbXAnl3NKLVuiJiG1Mm-16" value="Delivery-Boy" style="aspect=fixed;html=1;points=[];align=center;image;fontSize=12;image=img/lib/azure2/integration/Logic_Apps.svg;" parent="Q0W-F9wsaz1tx6airxOc-1" vertex="1">
                    <mxGeometry x="890" y="151" width="67" height="52" as="geometry"/>
                </mxCell>
                <mxCell id="wmbXAnl3NKLVuiJiG1Mm-17" value="&lt;span style=&quot;background-color: rgb(255 , 255 , 255)&quot;&gt;Customer&lt;/span&gt;" style="shape=umlActor;verticalLabelPosition=bottom;verticalAlign=top;html=1;outlineConnect=0;" parent="Q0W-F9wsaz1tx6airxOc-1" vertex="1">
                    <mxGeometry x="40" y="256" width="30" height="60" as="geometry"/>
                </mxCell>
                <mxCell id="wmbXAnl3NKLVuiJiG1Mm-22" value="take order" style="edgeStyle=orthogonalEdgeStyle;rounded=0;orthogonalLoop=1;jettySize=auto;html=1;entryX=0.94;entryY=0.52;entryDx=0;entryDy=0;entryPerimeter=0;" parent="Q0W-F9wsaz1tx6airxOc-1" source="wmbXAnl3NKLVuiJiG1Mm-18" target="wmbXAnl3NKLVuiJiG1Mm-20" edge="1">
                    <mxGeometry relative="1" as="geometry">
                        <Array as="points">
                            <mxPoint x="509" y="96"/>
                            <mxPoint x="509" y="187"/>
                        </Array>
                    </mxGeometry>
                </mxCell>
                <mxCell id="wmbXAnl3NKLVuiJiG1Mm-24" value="put pizza" style="edgeStyle=orthogonalEdgeStyle;rounded=0;orthogonalLoop=1;jettySize=auto;html=1;entryX=-0.06;entryY=0.238;entryDx=0;entryDy=0;entryPerimeter=0;" parent="Q0W-F9wsaz1tx6airxOc-1" source="wmbXAnl3NKLVuiJiG1Mm-18" target="wmbXAnl3NKLVuiJiG1Mm-12" edge="1">
                    <mxGeometry relative="1" as="geometry">
                        <Array as="points">
                            <mxPoint x="730" y="96"/>
                            <mxPoint x="730" y="171"/>
                        </Array>
                    </mxGeometry>
                </mxCell>
                <mxCell id="wmbXAnl3NKLVuiJiG1Mm-26" value="notify" style="edgeStyle=orthogonalEdgeStyle;rounded=0;orthogonalLoop=1;jettySize=auto;html=1;" parent="Q0W-F9wsaz1tx6airxOc-1" source="wmbXAnl3NKLVuiJiG1Mm-18" target="wmbXAnl3NKLVuiJiG1Mm-16" edge="1">
                    <mxGeometry relative="1" as="geometry">
                        <Array as="points">
                            <mxPoint x="924" y="80"/>
                        </Array>
                    </mxGeometry>
                </mxCell>
                <mxCell id="wmbXAnl3NKLVuiJiG1Mm-18" value="Pizza-Chef-1" style="aspect=fixed;html=1;points=[];align=center;image;fontSize=12;image=img/lib/azure2/integration/Logic_Apps.svg;" parent="Q0W-F9wsaz1tx6airxOc-1" vertex="1">
                    <mxGeometry x="579" y="70" width="67" height="52" as="geometry"/>
                </mxCell>
                <mxCell id="wmbXAnl3NKLVuiJiG1Mm-21" value="put order" style="edgeStyle=orthogonalEdgeStyle;rounded=0;orthogonalLoop=1;jettySize=auto;html=1;exitX=0.97;exitY=0.5;exitDx=0;exitDy=0;exitPerimeter=0;" parent="Q0W-F9wsaz1tx6airxOc-1" source="wmbXAnl3NKLVuiJiG1Mm-19" target="wmbXAnl3NKLVuiJiG1Mm-20" edge="1">
                    <mxGeometry relative="1" as="geometry">
                        <mxPoint x="360" y="186" as="sourcePoint"/>
                    </mxGeometry>
                </mxCell>
                <mxCell id="wmbXAnl3NKLVuiJiG1Mm-19" value="Receptionist" style="aspect=fixed;html=1;points=[];align=center;image;fontSize=12;image=img/lib/azure2/integration/Logic_Apps.svg;" parent="Q0W-F9wsaz1tx6airxOc-1" vertex="1">
                    <mxGeometry x="234" y="160" width="67" height="52" as="geometry"/>
                </mxCell>
                <mxCell id="wmbXAnl3NKLVuiJiG1Mm-20" value="" style="sketch=0;aspect=fixed;html=1;points=[];align=center;image;fontSize=12;image=img/lib/mscae/Service_Bus.svg;" parent="Q0W-F9wsaz1tx6airxOc-1" vertex="1">
                    <mxGeometry x="423" y="161" width="50" height="50" as="geometry"/>
                </mxCell>
            </root>
        </mxGraphModel>
    </diagram>
    <diagram id="NNPqV1P_bz2-gLU6wE1N" name="Lab-3">
        <mxGraphModel dx="1010" dy="924" grid="1" gridSize="10" guides="1" tooltips="1" connect="1" arrows="1" fold="1" page="1" pageScale="1" pageWidth="827" pageHeight="1169" math="0" shadow="0">
            <root>
                <mxCell id="sToPoa2eMhP5tR6anc4s-0"/>
                <mxCell id="sToPoa2eMhP5tR6anc4s-1" parent="sToPoa2eMhP5tR6anc4s-0"/>
                <mxCell id="sToPoa2eMhP5tR6anc4s-2" value="put pizza" style="edgeStyle=orthogonalEdgeStyle;rounded=0;orthogonalLoop=1;jettySize=auto;html=1;strokeWidth=3;" parent="sToPoa2eMhP5tR6anc4s-1" source="sToPoa2eMhP5tR6anc4s-5" target="sToPoa2eMhP5tR6anc4s-6" edge="1">
                    <mxGeometry relative="1" as="geometry">
                        <Array as="points">
                            <mxPoint x="730" y="286"/>
                            <mxPoint x="730" y="182"/>
                        </Array>
                    </mxGeometry>
                </mxCell>
                <mxCell id="sToPoa2eMhP5tR6anc4s-3" value="take order" style="edgeStyle=orthogonalEdgeStyle;rounded=0;orthogonalLoop=1;jettySize=auto;html=1;entryX=0.9;entryY=0.78;entryDx=0;entryDy=0;entryPerimeter=0;strokeWidth=3;" parent="sToPoa2eMhP5tR6anc4s-1" source="sToPoa2eMhP5tR6anc4s-5" target="sToPoa2eMhP5tR6anc4s-18" edge="1">
                    <mxGeometry relative="1" as="geometry">
                        <Array as="points">
                            <mxPoint x="509" y="286"/>
                            <mxPoint x="509" y="200"/>
                        </Array>
                    </mxGeometry>
                </mxCell>
                <mxCell id="WmzQHWO7Nond__SP9hVA-1" value="pass on order" style="edgeStyle=orthogonalEdgeStyle;rounded=0;orthogonalLoop=1;jettySize=auto;html=1;strokeWidth=3;" edge="1" parent="sToPoa2eMhP5tR6anc4s-1" source="sToPoa2eMhP5tR6anc4s-5" target="WmzQHWO7Nond__SP9hVA-0">
                    <mxGeometry relative="1" as="geometry">
                        <Array as="points">
                            <mxPoint x="730" y="300"/>
                        </Array>
                    </mxGeometry>
                </mxCell>
                <mxCell id="sToPoa2eMhP5tR6anc4s-5" value="Pizza-Chef-2" style="aspect=fixed;html=1;points=[];align=center;image;fontSize=12;image=img/lib/azure2/integration/Logic_Apps.svg;" parent="sToPoa2eMhP5tR6anc4s-1" vertex="1">
                    <mxGeometry x="579" y="260" width="67" height="52" as="geometry"/>
                </mxCell>
                <mxCell id="sToPoa2eMhP5tR6anc4s-6" value="Thermo-Box" style="sketch=0;aspect=fixed;html=1;points=[];align=center;image;fontSize=12;image=img/lib/mscae/BlobBlock.svg;" parent="sToPoa2eMhP5tR6anc4s-1" vertex="1">
                    <mxGeometry x="800" y="161" width="50" height="42" as="geometry"/>
                </mxCell>
                <mxCell id="sToPoa2eMhP5tR6anc4s-7" value="order" style="edgeStyle=orthogonalEdgeStyle;rounded=0;orthogonalLoop=1;jettySize=auto;html=1;entryX=-0.03;entryY=0.404;entryDx=0;entryDy=0;entryPerimeter=0;strokeWidth=3;" parent="sToPoa2eMhP5tR6anc4s-1" source="sToPoa2eMhP5tR6anc4s-11" target="sToPoa2eMhP5tR6anc4s-17" edge="1">
                    <mxGeometry relative="1" as="geometry">
                        <Array as="points">
                            <mxPoint x="200" y="286"/>
                            <mxPoint x="200" y="181"/>
                        </Array>
                    </mxGeometry>
                </mxCell>
                <mxCell id="sToPoa2eMhP5tR6anc4s-12" value="take order" style="edgeStyle=orthogonalEdgeStyle;rounded=0;orthogonalLoop=1;jettySize=auto;html=1;entryX=0.94;entryY=0.52;entryDx=0;entryDy=0;entryPerimeter=0;strokeWidth=1;" parent="sToPoa2eMhP5tR6anc4s-1" source="sToPoa2eMhP5tR6anc4s-15" target="sToPoa2eMhP5tR6anc4s-18" edge="1">
                    <mxGeometry relative="1" as="geometry">
                        <Array as="points">
                            <mxPoint x="509" y="96"/>
                            <mxPoint x="509" y="187"/>
                        </Array>
                    </mxGeometry>
                </mxCell>
                <mxCell id="sToPoa2eMhP5tR6anc4s-13" value="put pizza" style="edgeStyle=orthogonalEdgeStyle;rounded=0;orthogonalLoop=1;jettySize=auto;html=1;entryX=-0.06;entryY=0.238;entryDx=0;entryDy=0;entryPerimeter=0;strokeWidth=1;" parent="sToPoa2eMhP5tR6anc4s-1" source="sToPoa2eMhP5tR6anc4s-15" target="sToPoa2eMhP5tR6anc4s-6" edge="1">
                    <mxGeometry relative="1" as="geometry">
                        <Array as="points">
                            <mxPoint x="730" y="96"/>
                            <mxPoint x="730" y="171"/>
                        </Array>
                    </mxGeometry>
                </mxCell>
                <mxCell id="sToPoa2eMhP5tR6anc4s-15" value="Pizza-Chef-1" style="aspect=fixed;html=1;points=[];align=center;image;fontSize=12;image=img/lib/azure2/integration/Logic_Apps.svg;" parent="sToPoa2eMhP5tR6anc4s-1" vertex="1">
                    <mxGeometry x="579" y="70" width="67" height="52" as="geometry"/>
                </mxCell>
                <mxCell id="sToPoa2eMhP5tR6anc4s-16" value="put order" style="edgeStyle=orthogonalEdgeStyle;rounded=0;orthogonalLoop=1;jettySize=auto;html=1;exitX=0.97;exitY=0.5;exitDx=0;exitDy=0;exitPerimeter=0;strokeWidth=3;" parent="sToPoa2eMhP5tR6anc4s-1" source="sToPoa2eMhP5tR6anc4s-17" target="sToPoa2eMhP5tR6anc4s-18" edge="1">
                    <mxGeometry relative="1" as="geometry">
                        <mxPoint x="360" y="186" as="sourcePoint"/>
                    </mxGeometry>
                </mxCell>
                <mxCell id="sToPoa2eMhP5tR6anc4s-17" value="Receptionist" style="aspect=fixed;html=1;points=[];align=center;image;fontSize=12;image=img/lib/azure2/integration/Logic_Apps.svg;" parent="sToPoa2eMhP5tR6anc4s-1" vertex="1">
                    <mxGeometry x="234" y="160" width="67" height="52" as="geometry"/>
                </mxCell>
                <mxCell id="sToPoa2eMhP5tR6anc4s-18" value="queue" style="sketch=0;aspect=fixed;html=1;points=[];align=center;image;fontSize=12;image=img/lib/mscae/Service_Bus.svg;" parent="sToPoa2eMhP5tR6anc4s-1" vertex="1">
                    <mxGeometry x="423" y="161" width="50" height="50" as="geometry"/>
                </mxCell>
                <mxCell id="5bErAtKlES7sunXkOhxw-5" value="take pizza" style="edgeStyle=orthogonalEdgeStyle;rounded=0;orthogonalLoop=1;jettySize=auto;html=1;entryX=1;entryY=0.5;entryDx=0;entryDy=0;entryPerimeter=0;strokeWidth=3;" parent="sToPoa2eMhP5tR6anc4s-1" source="sToPoa2eMhP5tR6anc4s-22" target="sToPoa2eMhP5tR6anc4s-6" edge="1">
                    <mxGeometry relative="1" as="geometry">
                        <Array as="points">
                            <mxPoint x="930" y="580"/>
                            <mxPoint x="930" y="182"/>
                        </Array>
                    </mxGeometry>
                </mxCell>
                <mxCell id="5bErAtKlES7sunXkOhxw-6" value="deliver pizza" style="edgeStyle=orthogonalEdgeStyle;rounded=0;orthogonalLoop=1;jettySize=auto;html=1;strokeWidth=3;" parent="sToPoa2eMhP5tR6anc4s-1" source="sToPoa2eMhP5tR6anc4s-22" edge="1">
                    <mxGeometry relative="1" as="geometry">
                        <mxPoint x="60" y="320" as="targetPoint"/>
                    </mxGeometry>
                </mxCell>
                <mxCell id="sToPoa2eMhP5tR6anc4s-22" value="Delivery-Boy-City" style="aspect=fixed;html=1;points=[];align=center;image;fontSize=12;image=img/lib/azure2/integration/Logic_Apps.svg;" parent="sToPoa2eMhP5tR6anc4s-1" vertex="1">
                    <mxGeometry x="570" y="533" width="67" height="52" as="geometry"/>
                </mxCell>
                <mxCell id="sToPoa2eMhP5tR6anc4s-11" value="&lt;span style=&quot;background-color: rgb(255 , 255 , 255)&quot;&gt;Customer&lt;/span&gt;" style="shape=umlActor;verticalLabelPosition=bottom;verticalAlign=top;html=1;outlineConnect=0;" parent="sToPoa2eMhP5tR6anc4s-1" vertex="1">
                    <mxGeometry x="40" y="256" width="30" height="60" as="geometry"/>
                </mxCell>
                <mxCell id="WmzQHWO7Nond__SP9hVA-2" value="take order" style="edgeStyle=orthogonalEdgeStyle;rounded=0;orthogonalLoop=1;jettySize=auto;html=1;entryX=0.995;entryY=0.58;entryDx=0;entryDy=0;entryPerimeter=0;strokeWidth=3;" edge="1" parent="sToPoa2eMhP5tR6anc4s-1" source="WmzQHWO7Nond__SP9hVA-0" target="sToPoa2eMhP5tR6anc4s-22">
                    <mxGeometry relative="1" as="geometry">
                        <Array as="points">
                            <mxPoint x="730" y="563"/>
                        </Array>
                    </mxGeometry>
                </mxCell>
                <mxCell id="WmzQHWO7Nond__SP9hVA-4" style="edgeStyle=orthogonalEdgeStyle;rounded=0;orthogonalLoop=1;jettySize=auto;html=1;strokeWidth=1;" edge="1" parent="sToPoa2eMhP5tR6anc4s-1" source="WmzQHWO7Nond__SP9hVA-0" target="WmzQHWO7Nond__SP9hVA-3">
                    <mxGeometry relative="1" as="geometry"/>
                </mxCell>
                <mxCell id="WmzQHWO7Nond__SP9hVA-0" value="topic" style="sketch=0;aspect=fixed;html=1;points=[];align=center;image;fontSize=12;image=img/lib/mscae/Service_Bus.svg;" vertex="1" parent="sToPoa2eMhP5tR6anc4s-1">
                    <mxGeometry x="700" y="420" width="50" height="50" as="geometry"/>
                </mxCell>
                <mxCell id="WmzQHWO7Nond__SP9hVA-3" value="Delivery-Boy-Suburbs" style="aspect=fixed;html=1;points=[];align=center;image;fontSize=12;image=img/lib/azure2/integration/Logic_Apps.svg;" vertex="1" parent="sToPoa2eMhP5tR6anc4s-1">
                    <mxGeometry x="570" y="418" width="67" height="52" as="geometry"/>
                </mxCell>
            </root>
        </mxGraphModel>
    </diagram>
    <diagram id="Rp2G3ajLmczQcyQO23Pu" name="Lab-4">
        <mxGraphModel dx="1534" dy="647" grid="1" gridSize="10" guides="1" tooltips="1" connect="1" arrows="1" fold="1" page="1" pageScale="1" pageWidth="827" pageHeight="1169" math="0" shadow="0">
            <root>
                <mxCell id="oBfZp_IQIghl2ZtgoAXu-0"/>
                <mxCell id="oBfZp_IQIghl2ZtgoAXu-1" parent="oBfZp_IQIghl2ZtgoAXu-0"/>
                <mxCell id="oBfZp_IQIghl2ZtgoAXu-2" value="put pizza" style="edgeStyle=orthogonalEdgeStyle;rounded=0;orthogonalLoop=1;jettySize=auto;html=1;" parent="oBfZp_IQIghl2ZtgoAXu-1" source="oBfZp_IQIghl2ZtgoAXu-4" target="oBfZp_IQIghl2ZtgoAXu-6" edge="1">
                    <mxGeometry relative="1" as="geometry">
                        <Array as="points">
                            <mxPoint x="730" y="286"/>
                            <mxPoint x="730" y="182"/>
                        </Array>
                    </mxGeometry>
                </mxCell>
                <mxCell id="oBfZp_IQIghl2ZtgoAXu-3" value="take order" style="edgeStyle=orthogonalEdgeStyle;rounded=0;orthogonalLoop=1;jettySize=auto;html=1;entryX=0.9;entryY=0.78;entryDx=0;entryDy=0;entryPerimeter=0;" parent="oBfZp_IQIghl2ZtgoAXu-1" source="oBfZp_IQIghl2ZtgoAXu-4" target="oBfZp_IQIghl2ZtgoAXu-14" edge="1">
                    <mxGeometry relative="1" as="geometry">
                        <Array as="points">
                            <mxPoint x="509" y="286"/>
                            <mxPoint x="509" y="200"/>
                        </Array>
                    </mxGeometry>
                </mxCell>
                <mxCell id="oBfZp_IQIghl2ZtgoAXu-4" value="Pizza-Chef-2" style="aspect=fixed;html=1;points=[];align=center;image;fontSize=12;image=img/lib/azure2/integration/Logic_Apps.svg;" parent="oBfZp_IQIghl2ZtgoAXu-1" vertex="1">
                    <mxGeometry x="579" y="260" width="67" height="52" as="geometry"/>
                </mxCell>
                <mxCell id="oBfZp_IQIghl2ZtgoAXu-5" value="pizza was put" style="edgeStyle=orthogonalEdgeStyle;rounded=0;orthogonalLoop=1;jettySize=auto;html=1;strokeWidth=3;" parent="oBfZp_IQIghl2ZtgoAXu-1" source="oBfZp_IQIghl2ZtgoAXu-6" target="oBfZp_IQIghl2ZtgoAXu-17" edge="1">
                    <mxGeometry relative="1" as="geometry"/>
                </mxCell>
                <mxCell id="oBfZp_IQIghl2ZtgoAXu-6" value="Thermo-Box" style="sketch=0;aspect=fixed;html=1;points=[];align=center;image;fontSize=12;image=img/lib/mscae/BlobBlock.svg;" parent="oBfZp_IQIghl2ZtgoAXu-1" vertex="1">
                    <mxGeometry x="800" y="161" width="50" height="42" as="geometry"/>
                </mxCell>
                <mxCell id="oBfZp_IQIghl2ZtgoAXu-8" value="Delivery-Boy-1" style="aspect=fixed;html=1;points=[];align=center;image;fontSize=12;image=img/lib/azure2/integration/Logic_Apps.svg;" parent="oBfZp_IQIghl2ZtgoAXu-1" vertex="1">
                    <mxGeometry x="570" y="419" width="67" height="52" as="geometry"/>
                </mxCell>
                <mxCell id="oBfZp_IQIghl2ZtgoAXu-9" value="take order" style="edgeStyle=orthogonalEdgeStyle;rounded=0;orthogonalLoop=1;jettySize=auto;html=1;entryX=0.94;entryY=0.52;entryDx=0;entryDy=0;entryPerimeter=0;strokeWidth=3;" parent="oBfZp_IQIghl2ZtgoAXu-1" source="oBfZp_IQIghl2ZtgoAXu-11" target="oBfZp_IQIghl2ZtgoAXu-14" edge="1">
                    <mxGeometry relative="1" as="geometry">
                        <Array as="points">
                            <mxPoint x="509" y="96"/>
                            <mxPoint x="509" y="187"/>
                        </Array>
                    </mxGeometry>
                </mxCell>
                <mxCell id="oBfZp_IQIghl2ZtgoAXu-10" value="put pizza" style="edgeStyle=orthogonalEdgeStyle;rounded=0;orthogonalLoop=1;jettySize=auto;html=1;entryX=-0.06;entryY=0.238;entryDx=0;entryDy=0;entryPerimeter=0;strokeWidth=3;" parent="oBfZp_IQIghl2ZtgoAXu-1" source="oBfZp_IQIghl2ZtgoAXu-11" target="oBfZp_IQIghl2ZtgoAXu-6" edge="1">
                    <mxGeometry relative="1" as="geometry">
                        <Array as="points">
                            <mxPoint x="730" y="96"/>
                            <mxPoint x="730" y="171"/>
                        </Array>
                    </mxGeometry>
                </mxCell>
                <mxCell id="oBfZp_IQIghl2ZtgoAXu-11" value="Pizza-Chef-1" style="aspect=fixed;html=1;points=[];align=center;image;fontSize=12;image=img/lib/azure2/integration/Logic_Apps.svg;" parent="oBfZp_IQIghl2ZtgoAXu-1" vertex="1">
                    <mxGeometry x="579" y="70" width="67" height="52" as="geometry"/>
                </mxCell>
                <mxCell id="oBfZp_IQIghl2ZtgoAXu-12" value="put order" style="edgeStyle=orthogonalEdgeStyle;rounded=0;orthogonalLoop=1;jettySize=auto;html=1;exitX=0.97;exitY=0.5;exitDx=0;exitDy=0;exitPerimeter=0;strokeWidth=3;" parent="oBfZp_IQIghl2ZtgoAXu-1" source="oBfZp_IQIghl2ZtgoAXu-13" target="oBfZp_IQIghl2ZtgoAXu-14" edge="1">
                    <mxGeometry relative="1" as="geometry">
                        <mxPoint x="360" y="186" as="sourcePoint"/>
                    </mxGeometry>
                </mxCell>
                <mxCell id="oBfZp_IQIghl2ZtgoAXu-13" value="Receptionist" style="aspect=fixed;html=1;points=[];align=center;image;fontSize=12;image=img/lib/azure2/integration/Logic_Apps.svg;" parent="oBfZp_IQIghl2ZtgoAXu-1" vertex="1">
                    <mxGeometry x="234" y="160" width="67" height="52" as="geometry"/>
                </mxCell>
                <mxCell id="oBfZp_IQIghl2ZtgoAXu-14" value="" style="sketch=0;aspect=fixed;html=1;points=[];align=center;image;fontSize=12;image=img/lib/mscae/Service_Bus.svg;" parent="oBfZp_IQIghl2ZtgoAXu-1" vertex="1">
                    <mxGeometry x="423" y="161" width="50" height="50" as="geometry"/>
                </mxCell>
                <mxCell id="oBfZp_IQIghl2ZtgoAXu-15" value="receive event" style="edgeStyle=orthogonalEdgeStyle;rounded=0;orthogonalLoop=1;jettySize=auto;html=1;strokeWidth=1;" parent="oBfZp_IQIghl2ZtgoAXu-1" source="oBfZp_IQIghl2ZtgoAXu-17" target="oBfZp_IQIghl2ZtgoAXu-8" edge="1">
                    <mxGeometry relative="1" as="geometry"/>
                </mxCell>
                <mxCell id="oBfZp_IQIghl2ZtgoAXu-16" value="receive event" style="edgeStyle=orthogonalEdgeStyle;rounded=0;orthogonalLoop=1;jettySize=auto;html=1;entryX=0.925;entryY=0.577;entryDx=0;entryDy=0;entryPerimeter=0;strokeWidth=3;" parent="oBfZp_IQIghl2ZtgoAXu-1" source="oBfZp_IQIghl2ZtgoAXu-17" target="oBfZp_IQIghl2ZtgoAXu-20" edge="1">
                    <mxGeometry relative="1" as="geometry">
                        <Array as="points">
                            <mxPoint x="820" y="563"/>
                        </Array>
                    </mxGeometry>
                </mxCell>
                <mxCell id="oBfZp_IQIghl2ZtgoAXu-17" value="" style="sketch=0;aspect=fixed;html=1;points=[];align=center;image;fontSize=12;image=img/lib/mscae/Event_Grid.svg;" parent="oBfZp_IQIghl2ZtgoAXu-1" vertex="1">
                    <mxGeometry x="800" y="420" width="50" height="50" as="geometry"/>
                </mxCell>
                <mxCell id="oBfZp_IQIghl2ZtgoAXu-18" value="take pizza" style="edgeStyle=orthogonalEdgeStyle;rounded=0;orthogonalLoop=1;jettySize=auto;html=1;entryX=1;entryY=0.5;entryDx=0;entryDy=0;entryPerimeter=0;strokeWidth=3;" parent="oBfZp_IQIghl2ZtgoAXu-1" source="oBfZp_IQIghl2ZtgoAXu-20" target="oBfZp_IQIghl2ZtgoAXu-6" edge="1">
                    <mxGeometry relative="1" as="geometry">
                        <Array as="points">
                            <mxPoint x="1020" y="580"/>
                            <mxPoint x="1020" y="182"/>
                        </Array>
                    </mxGeometry>
                </mxCell>
                <mxCell id="oBfZp_IQIghl2ZtgoAXu-19" value="deliver pizza" style="edgeStyle=orthogonalEdgeStyle;rounded=0;orthogonalLoop=1;jettySize=auto;html=1;strokeWidth=3;entryX=0.5;entryY=0.5;entryDx=0;entryDy=0;entryPerimeter=0;" parent="oBfZp_IQIghl2ZtgoAXu-1" source="oBfZp_IQIghl2ZtgoAXu-20" target="oBfZp_IQIghl2ZtgoAXu-21" edge="1">
                    <mxGeometry relative="1" as="geometry">
                        <mxPoint x="60" y="320" as="targetPoint"/>
                        <Array as="points">
                            <mxPoint x="-80" y="559"/>
                            <mxPoint x="-80" y="190"/>
                        </Array>
                    </mxGeometry>
                </mxCell>
                <mxCell id="oBfZp_IQIghl2ZtgoAXu-20" value="Delivery-Boy-2" style="aspect=fixed;html=1;points=[];align=center;image;fontSize=12;image=img/lib/azure2/integration/Logic_Apps.svg;" parent="oBfZp_IQIghl2ZtgoAXu-1" vertex="1">
                    <mxGeometry x="570" y="533" width="67" height="52" as="geometry"/>
                </mxCell>
                <mxCell id="oBfZp_IQIghl2ZtgoAXu-29" value="order" style="edgeStyle=orthogonalEdgeStyle;rounded=0;orthogonalLoop=1;jettySize=auto;html=1;entryX=0.08;entryY=0.571;entryDx=0;entryDy=0;entryPerimeter=0;strokeWidth=3;" parent="oBfZp_IQIghl2ZtgoAXu-1" source="oBfZp_IQIghl2ZtgoAXu-21" target="oBfZp_IQIghl2ZtgoAXu-25" edge="1">
                    <mxGeometry relative="1" as="geometry"/>
                </mxCell>
                <mxCell id="oBfZp_IQIghl2ZtgoAXu-21" value="&lt;span style=&quot;background-color: rgb(255 , 255 , 255)&quot;&gt;Customer&lt;/span&gt;" style="shape=umlActor;verticalLabelPosition=bottom;verticalAlign=top;html=1;outlineConnect=0;" parent="oBfZp_IQIghl2ZtgoAXu-1" vertex="1">
                    <mxGeometry x="-40" y="159" width="30" height="60" as="geometry"/>
                </mxCell>
                <mxCell id="oBfZp_IQIghl2ZtgoAXu-22" value="Complaint-Manager" style="aspect=fixed;html=1;points=[];align=center;image;fontSize=12;image=img/lib/azure2/integration/Logic_Apps.svg;" parent="oBfZp_IQIghl2ZtgoAXu-1" vertex="1">
                    <mxGeometry x="234" y="270" width="67" height="52" as="geometry"/>
                </mxCell>
                <mxCell id="oBfZp_IQIghl2ZtgoAXu-24" value="HR-Manager" style="aspect=fixed;html=1;points=[];align=center;image;fontSize=12;image=img/lib/azure2/integration/Logic_Apps.svg;" parent="oBfZp_IQIghl2ZtgoAXu-1" vertex="1">
                    <mxGeometry x="234" y="40" width="67" height="52" as="geometry"/>
                </mxCell>
                <mxCell id="oBfZp_IQIghl2ZtgoAXu-26" style="edgeStyle=orthogonalEdgeStyle;rounded=0;orthogonalLoop=1;jettySize=auto;html=1;entryX=-0.06;entryY=0.577;entryDx=0;entryDy=0;entryPerimeter=0;strokeWidth=1;" parent="oBfZp_IQIghl2ZtgoAXu-1" source="oBfZp_IQIghl2ZtgoAXu-25" target="oBfZp_IQIghl2ZtgoAXu-24" edge="1">
                    <mxGeometry relative="1" as="geometry">
                        <Array as="points">
                            <mxPoint x="115" y="70"/>
                        </Array>
                    </mxGeometry>
                </mxCell>
                <mxCell id="oBfZp_IQIghl2ZtgoAXu-27" style="edgeStyle=orthogonalEdgeStyle;rounded=0;orthogonalLoop=1;jettySize=auto;html=1;strokeWidth=1;" parent="oBfZp_IQIghl2ZtgoAXu-1" source="oBfZp_IQIghl2ZtgoAXu-25" target="oBfZp_IQIghl2ZtgoAXu-13" edge="1">
                    <mxGeometry relative="1" as="geometry"/>
                </mxCell>
                <mxCell id="oBfZp_IQIghl2ZtgoAXu-28" style="edgeStyle=orthogonalEdgeStyle;rounded=0;orthogonalLoop=1;jettySize=auto;html=1;entryX=0.015;entryY=0.577;entryDx=0;entryDy=0;entryPerimeter=0;strokeWidth=1;" parent="oBfZp_IQIghl2ZtgoAXu-1" source="oBfZp_IQIghl2ZtgoAXu-25" target="oBfZp_IQIghl2ZtgoAXu-22" edge="1">
                    <mxGeometry relative="1" as="geometry">
                        <Array as="points">
                            <mxPoint x="115" y="300"/>
                        </Array>
                    </mxGeometry>
                </mxCell>
                <mxCell id="oBfZp_IQIghl2ZtgoAXu-25" value="" style="sketch=0;aspect=fixed;html=1;points=[];align=center;image;fontSize=12;image=img/lib/mscae/API_Management.svg;" parent="oBfZp_IQIghl2ZtgoAXu-1" vertex="1">
                    <mxGeometry x="90" y="165" width="50" height="42" as="geometry"/>
                </mxCell>
            </root>
        </mxGraphModel>
    </diagram>
</mxfile>